<?xml version="1.0" encoding="utf-8"?>
<!-- Generator: Adobe Illustrator 16.0.0, SVG Export Plug-In . SVG Version: 6.00 Build 0)  -->
<!DOCTYPE svg PUBLIC "-//W3C//DTD SVG 1.1//EN" "http://www.w3.org/Graphics/SVG/1.1/DTD/svg11.dtd">
<svg version="1.1" id="Capa_1" xmlns="http://www.w3.org/2000/svg" xmlns:xlink="http://www.w3.org/1999/xlink" x="0px" y="0px"
	 width="30px" height="30px" viewBox="35 35 30 30" enable-background="new 35 35 30 30" xml:space="preserve">
<g>
	<g>
		<path fill="#FFFFFF" d="M55.779,43.822h2.498l-3.705-6.355c-0.299-0.514-0.959-0.69-1.473-0.385
			c-0.516,0.298-0.693,0.959-0.389,1.474L55.779,43.822z"/>
		<path fill="#FFFFFF" d="M47.299,38.556c0.298-0.515,0.128-1.176-0.387-1.474c-0.514-0.299-1.175-0.129-1.475,0.385l-3.703,6.361
			h2.498L47.299,38.556z"/>
		<path fill="#FFFFFF" d="M62.414,45.771H37.579c-1.012,0-1.832,0.82-1.832,1.833v2.03c0,1.011,0.819,1.832,1.832,1.832h0.574
			l1.767,9.579c0.223,1.129,1.252,2.025,2.324,2.025h0.701h4.612c0.468,0,1.077,0,1.697,0l0,0h0.562h0.563l0,0
			c0.619,0,1.228,0,1.697,0h4.611h0.701c1.072,0,2.102-0.896,2.322-2.025l1.781-9.587h0.93c1.012,0,1.832-0.817,1.832-1.83v-2.031
			C64.246,46.59,63.426,45.771,62.414,45.771z M45.859,55.345v4.131c0,0.591-0.479,1.036-1.036,1.036
			c-0.591,0-1.036-0.479-1.036-1.036v-1.732v-4.061c0-0.591,0.48-1.036,1.036-1.036c0.591,0,1.036,0.48,1.036,1.036V55.345z
			 M49.183,55.345v4.131c0,0.591-0.479,1.036-1.036,1.036c-0.59,0-1.035-0.479-1.035-1.036v-1.732v-4.061
			c0-0.591,0.48-1.036,1.035-1.036c0.557,0,1.036,0.48,1.036,1.036V55.345z M52.523,57.743v1.732c0,0.557-0.443,1.036-1.035,1.036
			c-0.555,0-1.035-0.445-1.035-1.036v-4.131v-1.662c0-0.556,0.48-1.036,1.035-1.036c0.557,0,1.035,0.445,1.035,1.036V57.743z
			 M55.85,57.743v1.732c0,0.557-0.445,1.036-1.037,1.036c-0.555,0-1.035-0.445-1.035-1.036v-4.131v-1.662
			c0-0.556,0.443-1.036,1.035-1.036c0.555,0,1.037,0.445,1.037,1.036V57.743z"/>
	</g>
</g>
</svg>
