<?xml version="1.0" encoding="utf-8"?>
<!-- Generator: Adobe Illustrator 16.0.0, SVG Export Plug-In . SVG Version: 6.00 Build 0)  -->
<!DOCTYPE svg PUBLIC "-//W3C//DTD SVG 1.1//EN" "http://www.w3.org/Graphics/SVG/1.1/DTD/svg11.dtd">
<svg version="1.1" id="All_glyphs" xmlns="http://www.w3.org/2000/svg" xmlns:xlink="http://www.w3.org/1999/xlink" x="0px" y="0px"
	 width="27px" height="27px" viewBox="0 0 27 27" enable-background="new 0 0 27 27" xml:space="preserve">
<circle fill="#C83333" cx="13.5" cy="13.5" r="13.5"/>
<polygon fill="#FFFFFF" points="19.867,13.487 17.734,13.487 17.734,15.619 16.385,15.619 16.385,13.487 14.253,13.487 
	14.253,12.137 16.385,12.137 16.385,10.005 17.734,10.005 17.734,12.137 19.867,12.137 "/>
<path fill="#FFFFFF" d="M12.23,9.682c-0.341-1.194-0.889-1.548-1.742-1.548c-0.092,0-0.185,0.013-0.273,0.038
	c-0.369,0.104-0.662,0.412-0.826,0.87C9.223,9.507,9.211,9.99,9.355,10.544c0.26,0.984,0.96,1.699,1.667,1.699
	c0.093,0,0.185-0.013,0.272-0.038C12.066,11.988,12.55,10.81,12.23,9.682z M12.723,19.296c-0.848,0.412-1.762,0.457-2.115,0.457
	c-0.066,0-0.105-0.002-0.111-0.002c0,0-0.025,0.001-0.069,0.001c-0.55,0-3.294-0.127-3.294-2.626c0-2.456,2.988-2.647,3.903-2.647
	l0.024,0.002c-0.529-0.707-0.419-1.419-0.419-1.419c-0.047,0.003-0.114,0.007-0.198,0.007c-0.345,0-1.01-0.056-1.581-0.424
	c-0.699-0.45-1.054-1.217-1.054-2.278c0-2.995,3.271-3.117,3.304-3.117h3.269v0.07c0,0.366-0.656,0.436-1.104,0.497
	c-0.151,0.021-0.456,0.053-0.542,0.097c0.827,0.441,0.961,1.136,0.961,2.172c0,1.178-0.461,1.801-0.95,2.239
	c-0.303,0.271-0.542,0.483-0.542,0.768c0,0.279,0.328,0.566,0.706,0.899c0.621,0.545,1.472,1.291,1.472,2.546
	C14.381,17.834,13.822,18.762,12.723,19.296z M11.001,15.119c-0.073,0-0.147,0.003-0.221,0.008c-0.625,0.046-1.2,0.279-1.619,0.659
	c-0.413,0.374-0.624,0.845-0.594,1.323c0.063,0.998,1.137,1.586,2.439,1.49c1.284-0.094,2.139-0.832,2.076-1.83
	C13.023,15.828,12.207,15.119,11.001,15.119z"/>
</svg>
