<?xml version="1.0" encoding="utf-8"?>
<!-- Generator: Adobe Illustrator 16.0.0, SVG Export Plug-In . SVG Version: 6.00 Build 0)  -->
<!DOCTYPE svg PUBLIC "-//W3C//DTD SVG 1.1//EN" "http://www.w3.org/Graphics/SVG/1.1/DTD/svg11.dtd">
<svg version="1.1" id="Capa_1" xmlns="http://www.w3.org/2000/svg" xmlns:xlink="http://www.w3.org/1999/xlink" x="0px" y="0px"
	 width="50px" height="50px" viewBox="25 25 50 50" enable-background="new 25 25 50 50" xml:space="preserve">
<g>
	<path fill="#999999" d="M55.538,45.748h-2.791c-0.666,0-1.207,0.541-1.207,1.208v2.791c0,0.666,0.541,1.207,1.207,1.207h2.791
		c0.667,0,1.207-0.541,1.207-1.207v-2.791C56.745,46.283,56.205,45.748,55.538,45.748z"/>
	<path fill="#999999" d="M63.834,45.748h-2.791c-0.666,0-1.207,0.541-1.207,1.208v2.791c0,0.666,0.541,1.207,1.207,1.207h2.791
		c0.667,0,1.208-0.541,1.208-1.207v-2.791C65.042,46.283,64.501,45.748,63.834,45.748z"/>
	<path fill="#999999" d="M39.028,61.718h-2.796c-0.667,0-1.208,0.542-1.208,1.206v2.791c0,0.668,0.541,1.209,1.208,1.209h2.791
		c0.667,0,1.208-0.541,1.208-1.209v-2.791C40.235,62.26,39.694,61.718,39.028,61.718z"/>
	<path fill="#999999" d="M47.324,61.718h-2.792c-0.666,0-1.207,0.542-1.207,1.206v2.791c0,0.668,0.541,1.209,1.207,1.209h2.792
		c0.667,0,1.207-0.541,1.207-1.209v-2.791C48.531,62.26,47.991,61.718,47.324,61.718z"/>
	<path fill="#999999" d="M36.155,58.925h2.791c0.667,0,1.208-0.54,1.208-1.206v-2.793c0-0.665-0.541-1.206-1.208-1.206h-2.791
		c-0.667,0-1.207,0.541-1.207,1.206v2.793C34.948,58.385,35.488,58.925,36.155,58.925z"/>
	<path fill="#999999" d="M44.451,58.925h2.791c0.667,0,1.207-0.54,1.207-1.206v-2.793c0-0.665-0.541-1.206-1.207-1.206h-2.791
		c-0.667,0-1.208,0.541-1.208,1.206v2.793C43.244,58.385,43.784,58.925,44.451,58.925z"/>
	<path fill="#999999" d="M55.538,53.716h-2.791c-0.666,0-1.207,0.541-1.207,1.207v2.789c0,0.668,0.541,1.21,1.207,1.21h2.791
		c0.667,0,1.207-0.542,1.207-1.21v-2.789C56.745,54.257,56.205,53.716,55.538,53.716z"/>
	<path fill="#999999" d="M63.834,53.716h-2.791c-0.666,0-1.207,0.541-1.207,1.207v2.789c0,0.668,0.541,1.21,1.207,1.21h2.791
		c0.667,0,1.208-0.542,1.208-1.21v-2.789C65.042,54.257,64.501,53.716,63.834,53.716z"/>
	<g>
		<path fill="#999999" d="M29.128,72.365h41.737c0.667,0,1.208-0.541,1.208-1.207V32.472c0-0.666-0.541-1.207-1.208-1.207h-4.287
			v4.206c0,1.463-1.193,2.656-2.656,2.656h-2.955c-1.465,0-2.657-1.193-2.657-2.656v-4.206h-4.182v4.206
			c0,1.463-1.192,2.656-2.655,2.656h-2.956c-1.463,0-2.656-1.193-2.656-2.656v-4.206h-4.182v4.206c0,1.463-1.192,2.656-2.656,2.656
			h-2.956c-1.463,0-2.655-1.193-2.655-2.656v-4.206h-4.284c-0.667,0-1.207,0.541-1.207,1.207v38.686
			C27.921,71.824,28.462,72.365,29.128,72.365z M31.026,43.482h37.937v25.778H31.026V43.482z"/>
		<path fill="#999999" d="M36.073,27.634c-0.667,0-1.208,0.541-1.208,1.207v2.42v4.206c0,0.667,0.541,1.208,1.208,1.208h2.956
			c0.666,0,1.207-0.541,1.207-1.208v-4.206v-2.42c0-0.666-0.541-1.207-1.207-1.207H36.073z"/>
		<path fill="#999999" d="M48.517,27.634c-0.667,0-1.208,0.541-1.208,1.207v2.42v4.206c0,0.667,0.541,1.208,1.208,1.208h2.956
			c0.666,0,1.206-0.541,1.206-1.208v-4.206v-2.42c0-0.666-0.54-1.207-1.206-1.207H48.517z"/>
		<path fill="#999999" d="M63.917,27.634h-2.956c-0.667,0-1.206,0.541-1.206,1.207v2.42v4.206c0,0.667,0.539,1.208,1.206,1.208
			h2.956c0.666,0,1.207-0.541,1.207-1.208v-4.206v-2.42C65.124,28.175,64.583,27.634,63.917,27.634z"/>
	</g>
</g>
</svg>
