<?xml version="1.0" encoding="utf-8"?>
<!-- Generator: Adobe Illustrator 16.0.0, SVG Export Plug-In . SVG Version: 6.00 Build 0)  -->
<!DOCTYPE svg PUBLIC "-//W3C//DTD SVG 1.1//EN" "http://www.w3.org/Graphics/SVG/1.1/DTD/svg11.dtd">
<svg version="1.1" id="Capa_1" xmlns="http://www.w3.org/2000/svg" xmlns:xlink="http://www.w3.org/1999/xlink" x="0px" y="0px"
	 width="50px" height="50px" viewBox="25 25 50 50" enable-background="new 25 25 50 50" xml:space="preserve">
<g>
	<g>
		<path fill="#999999" d="M42.984,56.558c-2.263,0-4.093,1.835-4.093,4.102c0,2.257,1.83,4.092,4.093,4.092
			c2.264,0,4.093-1.835,4.093-4.092C47.077,58.393,45.248,56.558,42.984,56.558z M42.984,62.705c-1.132,0-2.047-0.924-2.047-2.046
			c0-1.135,0.916-2.05,2.047-2.05s2.046,0.915,2.046,2.05C45.03,61.781,44.116,62.705,42.984,62.705z M73.854,53.528v4.371
			c0,1.089-0.884,1.976-1.975,1.976h-2.111c-0.383-2.62-2.64-4.635-5.362-4.635c-2.72,0-4.977,2.015-5.357,4.635H48.342
			c-0.382-2.62-2.639-4.635-5.357-4.635c-2.717,0-4.975,2.015-5.356,4.635h-2.646c-1.089,0-1.975-0.887-1.975-1.976v-4.371H73.854
			L73.854,53.528z M64.41,56.558c-2.264,0-4.099,1.835-4.099,4.102c0,2.257,1.835,4.092,4.099,4.092
			c2.257,0,4.094-1.835,4.094-4.092C68.504,58.393,66.667,56.558,64.41,56.558z M64.41,62.705c-1.132,0-2.047-0.924-2.047-2.046
			c0-1.135,0.915-2.05,2.047-2.05c1.125,0,2.048,0.915,2.048,2.05C66.458,61.781,65.535,62.705,64.41,62.705z M73.077,49.127
			l-7.759-7.673c-0.493-0.486-1.158-0.763-1.85-0.763h-3.914v-1.467c0-1.092-0.882-1.975-1.975-1.975H34.982
			c-1.086,0-1.975,0.882-1.975,1.975v0.309l-8.011,0.924l14.196,1.848l-14.381,1.429l14.33,2.037l-14.33,1.242l8.196,1.546v3.878
			h40.845v-1.442C73.853,50.293,73.572,49.621,73.077,49.127z M69.695,49.385h-7.51c-0.172,0-0.309-0.138-0.309-0.311v-5.796
			c0-0.171,0.137-0.31,0.309-0.31h1.429c0.079,0,0.159,0.032,0.217,0.085l6.074,5.798C70.11,49.042,69.969,49.385,69.695,49.385z"/>
	</g>
</g>
</svg>
