<?xml version="1.0" encoding="utf-8"?>
<!-- Generator: Adobe Illustrator 16.0.0, SVG Export Plug-In . SVG Version: 6.00 Build 0)  -->
<!DOCTYPE svg PUBLIC "-//W3C//DTD SVG 1.1//EN" "http://www.w3.org/Graphics/SVG/1.1/DTD/svg11.dtd">
<svg version="1.1" id="Capa_1" xmlns="http://www.w3.org/2000/svg" xmlns:xlink="http://www.w3.org/1999/xlink" x="0px" y="0px"
	 width="50px" height="50px" viewBox="25 25 50 50" enable-background="new 25 25 50 50" xml:space="preserve">
<g>
	<g>
		<path fill="#999999" d="M72.324,49.635C70.809,39.31,62.322,31.256,51.799,30.401v-1.969h-3.708v1.969
			c-10.524,0.854-19.009,8.908-20.523,19.233c-0.236,1.604-0.223,1.561,0.472,0.094c1.208-2.556,3.809-4.322,6.821-4.322
			c3.151,0,5.852,1.933,6.979,4.678c0.616,1.5,0.509,1.5,1.126,0c0.899-2.188,2.796-3.855,5.125-4.444v18.198
			c0,2.217-1.805,4.021-4.022,4.021h-1.176c-2.218,0-4.022-1.805-4.022-4.021h-3.708c0,4.262,3.468,7.73,7.73,7.73h1.176
			c4.263,0,7.73-3.469,7.73-7.73V45.64c2.328,0.589,4.229,2.257,5.127,4.444c0.615,1.5,0.508,1.5,1.125,0
			c1.127-2.745,3.828-4.678,6.979-4.678c3.014,0,5.615,1.767,6.822,4.322C72.545,51.195,72.559,51.238,72.324,49.635z"/>
		<path fill="#999999" d="M72.566,47.563c0.004,0.107,0.006,0.107,0.002,0C72.566,47.456,72.564,47.456,72.566,47.563z"/>
	</g>
</g>
</svg>
