<?xml version="1.0" encoding="utf-8"?>
<!-- Generator: Adobe Illustrator 16.0.0, SVG Export Plug-In . SVG Version: 6.00 Build 0)  -->
<!DOCTYPE svg PUBLIC "-//W3C//DTD SVG 1.1//EN" "http://www.w3.org/Graphics/SVG/1.1/DTD/svg11.dtd">
<svg version="1.1" id="Capa_1" xmlns="http://www.w3.org/2000/svg" xmlns:xlink="http://www.w3.org/1999/xlink" x="0px" y="0px"
	 width="50px" height="50px" viewBox="25 25 50 50" enable-background="new 25 25 50 50" xml:space="preserve">
<g>
	<g>
		<g>
			<path fill="#999999" d="M53.211,57.754c-0.177-0.193-0.4-0.339-0.629-0.457c-0.504-0.261-1.053-0.421-1.597-0.567v4.227
				c0.884-0.099,1.898-0.419,2.365-1.247l0,0c0.222-0.396,0.266-0.878,0.176-1.317C53.477,58.153,53.376,57.934,53.211,57.754z"/>
		</g>
		<g>
			<path fill="#999999" d="M53.347,59.716c0.002,0,0.002-0.004,0.004-0.007l0,0C53.349,59.709,53.347,59.716,53.347,59.716z"/>
		</g>
		<g>
			<path fill="#999999" d="M46.836,51.003c-0.152,0.224-0.247,0.475-0.273,0.742c-0.027,0.269-0.012,0.57,0.09,0.824
				c0.097,0.24,0.301,0.417,0.511,0.56c0.236,0.158,0.496,0.285,0.76,0.392c0.222,0.089,0.471,0.174,0.739,0.258v-3.821
				C47.984,50.103,47.242,50.411,46.836,51.003z"/>
		</g>
		<g>
			<path fill="#999999" d="M53.366,59.678c-0.005,0.009-0.01,0.021-0.016,0.031l0,0C53.356,59.696,53.363,59.687,53.366,59.678z"/>
		</g>
		<g>
			<path fill="#999999" d="M53.389,59.638C53.391,59.635,53.391,59.635,53.389,59.638L53.389,59.638z"/>
		</g>
		<g>
			<path fill="#999999" d="M52.472,36.668c3.592-3.018,5.994-9.814,4.516-10.11c-1.964-0.396-6.224,1.336-8.283,1.642
				c-2.921,0.352-6.103-3.167-7.888-1.207c-1.452,1.597,1.041,7.398,4.941,9.926c-11.636,5.719-27.991,34.427,0.541,36.511
				C85.779,76.314,66.009,42.241,52.472,36.668z M55.862,59.309c-0.119,1.12-0.712,2.132-1.599,2.817
				c-0.938,0.729-2.112,1.067-3.278,1.158v1.238c0,0.332-0.145,0.649-0.395,0.869c-0.338,0.299-0.839,0.378-1.252,0.184
				c-0.407-0.187-0.676-0.603-0.676-1.053v-1.354c-0.199-0.037-0.398-0.081-0.595-0.136c-1.09-0.298-2.102-0.885-2.84-1.748
				c-0.368-0.431-0.668-0.918-0.875-1.446c-0.055-0.14-0.104-0.279-0.146-0.422c-0.038-0.128-0.078-0.257-0.092-0.392
				c-0.022-0.224,0.023-0.455,0.126-0.654c0.215-0.41,0.67-0.661,1.132-0.621c0.456,0.041,0.856,0.356,0.999,0.794
				c0.045,0.132,0.074,0.271,0.124,0.403c0.049,0.132,0.109,0.261,0.179,0.383c0.137,0.236,0.31,0.457,0.509,0.651
				c0.411,0.395,0.934,0.649,1.478,0.805v-4.594c-1.065-0.279-2.164-0.631-3.045-1.319c-0.427-0.332-0.79-0.745-1.026-1.232
				c-0.251-0.516-0.355-1.092-0.359-1.664c-0.005-0.58,0.105-1.151,0.347-1.681c0.228-0.497,0.554-0.94,0.954-1.307
				c0.854-0.788,1.992-1.227,3.13-1.389v-0.101v-1.184c0-0.331,0.145-0.65,0.392-0.869c0.341-0.301,0.842-0.375,1.255-0.186
				c0.407,0.188,0.675,0.606,0.675,1.055v1.184v0.094c0.151,0.021,0.303,0.042,0.455,0.069c1.117,0.202,2.213,0.665,3.029,1.473
				c0.391,0.382,0.706,0.836,0.93,1.333c0.063,0.141,0.116,0.282,0.164,0.425c0.045,0.136,0.087,0.275,0.109,0.413
				c0.034,0.229,0,0.458-0.097,0.661c-0.198,0.421-0.639,0.691-1.104,0.67c-0.455-0.02-0.868-0.317-1.033-0.741
				c-0.049-0.128-0.073-0.262-0.122-0.39c-0.05-0.129-0.114-0.251-0.19-0.365c-0.143-0.224-0.332-0.417-0.548-0.575
				c-0.465-0.343-1.028-0.523-1.594-0.624v4.398c0.67,0.162,1.341,0.335,1.982,0.59c0.971,0.382,1.893,0.969,2.42,1.894
				c-0.081-0.143-0.161-0.285,0.004,0.007c0.163,0.281,0.084,0.148,0.003,0.006C55.817,57.577,55.955,58.467,55.862,59.309z"/>
		</g>
		<g>
			<path fill="#999999" d="M53.332,59.74c-0.006,0.009-0.013,0.023-0.016,0.03C53.319,59.764,53.324,59.749,53.332,59.74z"/>
		</g>
	</g>
</g>
</svg>
