<?xml version="1.0" encoding="utf-8"?>
<!-- Generator: Adobe Illustrator 16.0.0, SVG Export Plug-In . SVG Version: 6.00 Build 0)  -->
<!DOCTYPE svg PUBLIC "-//W3C//DTD SVG 1.1//EN" "http://www.w3.org/Graphics/SVG/1.1/DTD/svg11.dtd">
<svg version="1.1" id="All_glyphs" xmlns="http://www.w3.org/2000/svg" xmlns:xlink="http://www.w3.org/1999/xlink" x="0px" y="0px"
	 width="27px" height="27px" viewBox="0 0 27 27" enable-background="new 0 0 27 27" xml:space="preserve">
<circle fill="#125688" cx="13.5" cy="13.5" r="13.5"/>
<g>
	<path fill="#FFFFFF" d="M16.774,5.492H9.601c-2.437,0-4.418,1.98-4.418,4.417v7.173c0,2.438,1.982,4.419,4.418,4.419h7.173
		c2.437,0,4.418-1.98,4.418-4.419V9.909C21.192,7.472,19.211,5.492,16.774,5.492z M19.771,17.082c0,1.653-1.344,3-2.997,3H9.601
		c-1.654,0-2.998-1.347-2.998-3V9.909c0-1.653,1.344-2.998,2.998-2.998h7.173c1.653,0,2.997,1.345,2.997,2.998V17.082L19.771,17.082
		z"/>
	<path fill="#FFFFFF" d="M13.188,9.37c-2.274,0-4.125,1.852-4.125,4.126c0,2.273,1.852,4.125,4.125,4.125
		c2.273,0,4.125-1.852,4.125-4.125C17.313,11.222,15.461,9.37,13.188,9.37z M13.188,16.2c-1.492,0-2.705-1.213-2.705-2.704
		c0-1.493,1.213-2.706,2.705-2.706c1.492,0,2.704,1.213,2.704,2.706C15.892,14.987,14.68,16.2,13.188,16.2z"/>
	<path fill="#FFFFFF" d="M17.485,8.167c-0.272,0-0.541,0.11-0.736,0.305c-0.192,0.192-0.306,0.461-0.306,0.735
		c0,0.275,0.113,0.543,0.306,0.736c0.195,0.195,0.464,0.306,0.736,0.306c0.275,0,0.542-0.111,0.738-0.306
		c0.194-0.193,0.305-0.461,0.305-0.736c0-0.274-0.11-0.543-0.305-0.735C18.029,8.276,17.761,8.167,17.485,8.167z"/>
</g>
</svg>
