<?xml version="1.0" encoding="utf-8"?>
<!-- Generator: Adobe Illustrator 16.0.0, SVG Export Plug-In . SVG Version: 6.00 Build 0)  -->
<!DOCTYPE svg PUBLIC "-//W3C//DTD SVG 1.1//EN" "http://www.w3.org/Graphics/SVG/1.1/DTD/svg11.dtd">
<svg version="1.1" id="All_glyphs" xmlns="http://www.w3.org/2000/svg" xmlns:xlink="http://www.w3.org/1999/xlink" x="0px" y="0px"
	 width="27px" height="27px" viewBox="0 0 27 27" enable-background="new 0 0 27 27" xml:space="preserve">
<circle fill="#61C0DB" cx="13.531" cy="13.531" r="13.531"/>
<path fill="#FFFFFF" d="M19.035,11.085c0.005,0.114,0.007,0.229,0.007,0.345c0,3.522-2.681,7.583-7.583,7.583
	c-1.504,0-2.904-0.441-4.084-1.199c0.208,0.025,0.42,0.039,0.635,0.039c1.248,0,2.398-0.427,3.311-1.143
	c-1.166-0.021-2.15-0.792-2.49-1.85c0.164,0.029,0.33,0.047,0.502,0.047c0.243,0,0.479-0.032,0.702-0.094
	c-1.22-0.244-2.139-1.321-2.139-2.613c0-0.011,0-0.021,0.001-0.032c0.359,0.199,0.77,0.319,1.207,0.333
	c-0.715-0.479-1.186-1.293-1.186-2.218c0-0.489,0.131-0.946,0.36-1.341c1.314,1.613,3.278,2.674,5.494,2.785
	c-0.047-0.195-0.069-0.399-0.069-0.607c0-1.472,1.193-2.665,2.666-2.665c0.765,0,1.458,0.323,1.943,0.842
	c0.606-0.12,1.179-0.342,1.691-0.647c-0.197,0.623-0.621,1.145-1.171,1.475c0.539-0.064,1.054-0.207,1.53-0.42
	C20.008,10.239,19.555,10.71,19.035,11.085z"/>
</svg>
